<svg viewBox="-60 0 512 512.00002" xmlns="http://www.w3.org/2000/svg"><path d="m33.796875 489.210938v-466.417969c0-8.410157 6.816406-15.226563 15.226563-15.226563h319.964843c8.40625 0 15.226563 6.816406 15.226563 15.226563v466.417969c0 8.40625-6.816406 15.222656-15.226563 15.222656h-319.96875c-8.40625 0-15.222656-6.816406-15.222656-15.222656zm0 0" fill="#91aee2"/><path d="m335.851562 21.832031v332.734375c0 .515625-.199218 1.007813-.574218 1.371094l-120.5625 116.585938c-.351563.34375-.828125.535156-1.320313.535156h-191.5625c-7.871093 0-14.261719-6.390625-14.261719-14.273438v-436.953125c0-7.882812 6.390626-14.261719 14.261719-14.261719h299.757813c7.882812 0 14.261718 6.378907 14.261718 14.261719zm0 0" fill="#bebebe"/><path d="m335.851562 21.832031v332.734375c0 .535156-.234374 1.054688-.574218 1.371094l-120.5625 116.585938c-.34375.34375-.855469.535156-1.320313.535156h-149.105469c-7.875 0-14.265624-6.390625-14.265624-14.273438v-436.953125c0-7.882812 6.390624-14.261719 14.265624-14.261719h257.300782c7.882812 0 14.261718 6.378907 14.261718 14.261719zm0 0" fill="#ebebf0"/><path d="m335.671875 355.375c-.09375.210938-.222656.402344-.394531.5625l-120.5625 116.585938c-.160156.160156-.351563.28125-.554688.371093v-103.398437c0-7.804688 6.320313-14.121094 14.121094-14.121094zm0 0" fill="#bebebe"/><g fill="#4172cc"><path d="m304.492188 88.539062-47.152344-30.109374c-6.609375-4.222657-15.421875-2.277344-19.644532 4.332031-4.222656 6.613281-2.277343 15.425781 4.332032 19.648437l28.832031 18.410156-29.097656 19.507813c-3.15625 2.117187-5.300781 5.335937-6.035157 9.0625-.734374 3.730469.023438 7.519531 2.140626 10.675781 2.648437 3.949219 7.070312 6.304688 11.828124 6.304688 2.824219 0 5.558594-.832032 7.914063-2.410156l47.148437-31.617188c4-2.683594 6.359376-7.15625 6.304688-11.972656s-2.511719-9.238282-6.570312-11.832032zm0 0"/><path d="m101.664062 120.328125-29.097656-19.507813 28.832032-18.410156c6.609374-4.222656 8.554687-13.035156 4.332031-19.648437-4.222657-6.609375-13.035157-8.554688-19.648438-4.332031l-47.148437 30.109374c-4.058594 2.59375-6.515625 7.015626-6.570313 11.832032-.054687 4.816406 2.300781 9.292968 6.300781 11.972656l47.152344 31.617188c2.351563 1.578124 5.089844 2.410156 7.914063 2.410156 4.757812 0 9.175781-2.355469 11.824219-6.304688 2.117187-3.15625 2.878906-6.945312 2.140624-10.675781-.730468-3.726563-2.875-6.945313-6.03125-9.0625zm0 0"/><path d="m203.289062 59.023438c-3.042968-2.273438-6.792968-3.226563-10.550781-2.683594-3.761719.542968-7.085937 2.519531-9.359375 5.566406l-46.125 61.722656c-2.273437 3.042969-3.226562 6.792969-2.683594 10.554688.542969 3.761718 2.519532 7.082031 5.5625 9.359375 2.480469 1.851562 5.421876 2.828125 8.507813 2.828125 4.46875 0 8.734375-2.132813 11.40625-5.710938l46.121094-61.722656c2.277343-3.046875 3.230469-6.792969 2.6875-10.554688-.542969-3.761718-2.519531-7.085937-5.566407-9.359374zm0 0"/><path d="m7.570312 188.179688h328.28125v141.503906h-328.28125zm0 0"/></g><path d="m7.570312 188.179688h42.453126v141.503906h-42.453126zm0 0" fill="#2e5aac"/><path d="m384.210938 431.613281c4.179687 0 7.570312-3.390625 7.570312-7.570312v-401.25c0-12.566407-10.222656-22.792969-22.789062-22.792969-125.542969 0-220.082032 0-347.160157 0-12.039062 0-21.832031 9.792969-21.832031 21.832031v225.730469c0 4.1875 3.390625 7.570312 7.570312 7.570312 4.179688 0 7.570313-3.382812 7.570313-7.570312v-51.808594h194.304687c4.183594 0 7.574219-3.390625 7.574219-7.570312 0-4.179688-3.390625-7.570313-7.574219-7.570313h-194.304687v-158.78125c0-3.695312 2.996094-6.691406 6.691406-6.691406h299.757813c3.695312 0 6.691406 2.996094 6.691406 6.691406v158.78125h-88.550781c-4.183594 0-7.570313 3.390625-7.570313 7.570313 0 4.179687 3.386719 7.570312 7.570313 7.570312h88.550781v126.359375h-313.140625v-44.269531c0-4.179688-3.390625-7.570312-7.570313-7.570312-4.179687 0-7.570312 3.390624-7.570312 7.570312v51.835938.003906.007812 129.09375c0 12.042969 9.792969 21.84375 21.832031 21.84375h4.390625v8.578125c0 12.566407 10.226563 22.792969 22.804688 22.792969h319.964844c12.566406 0 22.789062-10.226562 22.789062-22.792969v-34.882812c0-4.179688-3.390625-7.570313-7.570312-7.570313-4.179688 0-7.570313 3.390625-7.570313 7.570313v34.882812c0 4.21875-3.429687 7.652344-7.648437 7.652344h-319.964844c-4.230469 0-7.664063-3.433594-7.664063-7.652344v-8.578125h172.03125c4.203125 0 6.3125-2.304687 9.253907-5.25-.292969.285156 103.59375-100.175781 117.886718-114 1.835938-1.777344 2.886719-4.257812 2.886719-6.8125 0-12.210937 0-320.179687 0-332.734375 0-2.332031-.363281-4.582031-1.050781-6.691406h26.621094c4.21875 0 7.648437 3.433594 7.648437 7.652344v401.25c0 4.179687 3.390625 7.570312 7.570313 7.570312zm-162.480469 23.589844v-85.707031c0-3.613282 2.9375-6.550782 6.550781-6.550782h88.855469c-58.640625 56.714844-61.792969 59.757813-95.40625 92.257813zm106.550781-107.398437h-100c-11.960938 0-21.691406 9.730468-21.691406 21.691406v95.992187h-165.226563c-6.625 0-13.808593 0-19.53125 0-3.695312 0-6.691406-3.007812-6.691406-6.703125v-121.53125h313.140625zm0 0"/><path d="m231.582031 144.285156c6.71875 10.015625 20.261719 12.652344 30.242188 5.960938l47.148437-31.613282c13.03125-8.738281 12.851563-28.007812-.402344-36.476562 0 0 0 0-.003906 0l-47.148437-30.105469c-10.125-6.46875-23.632813-3.492187-30.101563 6.636719-6.46875 10.132812-3.492187 23.636719 6.640625 30.101562l19.078125 12.183594-19.488281 13.066406c-10.003906 6.710938-12.675781 20.238282-5.964844 30.246094zm14.394531-17.667968 29.097657-19.511719c4.523437-3.035157 4.457031-9.730469-.144531-12.667969l-28.828126-18.410156c-3.09375-1.976563-4.003906-6.097656-2.03125-9.191406 1.972657-3.082032 6.089844-4.007813 9.195313-2.027344l47.152344 30.109375c4.035156 2.578125 4.109375 8.464843.121093 11.140625-49.125 32.476562-47.265624 32.742187-50.847656 32.742187-2.230468 0-4.296875-1.101562-5.535156-2.949219-2.046875-3.050781-1.253906-7.175781 1.820312-9.234374zm0 0"/><path d="m112.109375 58.6875c-6.464844-10.128906-19.964844-13.105469-30.097656-6.640625l-47.152344 30.113281c-13.25 8.460938-13.441406 27.730469-.40625 36.472656l47.152344 31.617188c3.601562 2.414062 7.796875 3.691406 12.128906 3.691406 21.347656 0 30.074219-27.878906 12.144531-39.898437l-19.488281-13.066407 19.082031-12.1875c10.128906-6.46875 13.105469-19.972656 6.636719-30.101562zm-14.785156 17.339844-28.832031 18.410156c-4.59375 2.9375-4.671876 9.632812-.140626 12.671875 28.816407 20.0625 30.988282 19.023437 31.917969 23.746094 1.136719 5.769531-5.296875 10.128906-10.238281 6.816406l-47.148438-31.613281c-3.992187-2.679688-3.910156-8.5625.121094-11.136719l47.152344-30.113281c3.105469-1.980469 7.226562-1.054688 9.191406 2.027344 1.976563 3.09375 1.066406 7.21875-2.023437 9.191406zm0 0"/><path d="m177.316406 57.371094-46.125 61.726562c-10.714844 14.339844-.445312 34.84375 17.453125 34.84375 6.84375 0 13.371094-3.269531 17.464844-8.75l46.125-61.722656c3.484375-4.664062 4.945313-10.40625 4.113281-16.171875-2.796875-19.320313-27.53125-25.316406-39.03125-9.925781zm-23.332031 78.757812c-2.128906 2.847656-6.28125 3.617188-9.316406 1.347656-2.917969-2.179687-3.582031-6.328124-1.347657-9.316406 49.242188-64.757812 45.632813-63.625 50.5-64.328125 3.652344-.527343 7.015626 1.980469 7.542969 5.636719.257813 1.78125-.667969 3.042969-47.378906 66.660156zm0 0"/><path d="m86.558594 298.570312 16.183594-27.492187 16.183593 27.492187c2.742188 5.027344 19.714844-1.398437 14.632813-9.867187l-19.179688-29.597656c18.925782-30.859375 19.511719-30.015625 19.511719-32.921875 0-6.351563-12.847656-11.726563-16.40625-5.320313l-14.742187 25.71875-14.742188-25.71875c-3.976562-7.152343-20.640625.363281-15.296875 8.757813l18.398437 29.484375-19.175781 29.597656c-4.964843 8.269531 11.40625 14.9375 14.632813 9.867187zm0 0"/><path d="m210.703125 294.355469v-67.0625c0-6.316407-4.214844-8.644531-8.648437-8.644531-6.203126 0-8.867188.664062-13.410157 8.644531l-11.417969 19.953125-11.417968-19.953125c-4.542969-7.980469-7.207032-8.644531-13.410156-8.644531-4.324219 0-8.648438 2.328124-8.648438 8.644531v67.0625c0 7.085937 17.292969 7.105469 17.292969 0v-42.675781l10.53125 19.289062c2.34375 4.496094 8.742187 4.152344 11.195312 0l10.640625-18.179688v41.566407c0 7.097656 17.292969 7.09375 17.292969 0zm0 0"/><path d="m224.996094 223.855469v70.5c0 3.550781 3.769531 5.320312 7.535156 5.320312h35.03125c6.648438 0 6.648438-15.074219 0-15.074219h-25.273438v-60.746093c0-6.984375-17.292968-6.976563-17.292968 0zm0 0"/></svg>